<svg width="32" height="32" viewBox="0 0 32 32" fill="none" xmlns="http://www.w3.org/2000/svg">
<path d="M7.08618 18.9708C7.08618 17.3298 8.41646 15.9995 10.0574 15.9995V15.9995C11.6984 15.9995 13.0287 17.3298 13.0287 18.9708V21.942H10.0574C8.41646 21.942 7.08618 20.6118 7.08618 18.9708V18.9708Z" fill="white"/>
<path d="M13.0287 7.08601V4.11475H7.08618V7.08601C7.08618 12.009 11.077 15.9998 16 15.9998H18.9712V10.0573H16C14.359 10.0573 13.0287 8.727 13.0287 7.08601Z" fill="white"/>
<path d="M16.0001 21.9422H13.0288V27.8848H16.0001C20.923 27.8848 24.9139 23.8939 24.9139 18.971V15.9997L18.9713 15.9997V18.971C18.9713 20.612 17.6411 21.9422 16.0001 21.9422Z" fill="white"/>
<path d="M18.9712 4.11475H21.9425C23.5834 4.11475 24.9137 5.44503 24.9137 7.08601V10.0573H18.9712V4.11475Z" fill="white"/>
</svg>
