<svg width="108" height="120" viewBox="0 0 108 120" fill="none" xmlns="http://www.w3.org/2000/svg">
<path d="M55.7903 83.4367C55.3326 83.3257 55 82.9112 55 82.4403V70C55 67.2386 52.7614 65 50 65H15C12.2386 65 10 67.2386 10 70V105C10 107.761 12.2386 110 15 110H50C52.7614 110 55 107.761 55 105C55 104.346 55.5968 103.855 56.241 103.969C56.9953 104.102 57.7242 104.216 58.4204 104.309C60.0022 104.52 62.2338 104.743 64.4155 104.49C64.7232 104.454 65 104.69 65 105C65 113.284 58.2843 120 50 120H15C6.71573 120 0 113.284 0 105V70C0 61.7157 6.71573 55 15 55H50C58.2843 55 65 61.7157 65 70V71.8019C65 73.0206 64.4016 74.1514 63.4763 74.9445C61.9098 76.2872 60.3523 77.9526 58.9999 79.7558C58.3026 80.6856 57.5877 81.7477 56.9328 82.9161C56.7032 83.3256 56.2465 83.5474 55.7903 83.4367Z" fill="#395E7F"/>
<path fill-rule="evenodd" clip-rule="evenodd" d="M56.3274 12.4738C58.1168 10.6244 59.1924 10.1019 60.1357 10.0091C60.2286 10.0412 60.437 10.1253 60.7828 10.3302C61.5366 10.7766 62.4945 11.5235 63.7908 12.663C64.4015 13.1999 65.0861 13.826 65.8323 14.5085C67.9869 16.4792 70.6554 18.9198 73.5428 21.0377C77.9864 24.2969 83.123 27.1912 87.9503 29.0083C90.2675 29.8806 92.6349 30.5508 94.9021 30.8552C93.7298 32.8728 92.2675 35.2069 90.6771 37.6647C89.4204 39.6069 88.0278 41.7097 86.7136 43.694C85.3273 45.7872 84.0284 47.7486 83.0683 49.2506C82.1278 50.7221 81.2219 52.1932 80.7181 53.2637C80.586 53.5443 80.4042 53.9572 80.2646 54.4279C80.1947 54.664 80.0986 55.0351 80.0514 55.4879C80.0103 55.8818 79.96 56.7335 80.2986 57.7268C80.7003 58.9056 81.6301 60.1642 83.1982 60.8014C84.5351 61.3447 85.7109 61.1734 86.2559 61.0526C87.2866 60.8242 88.0404 60.3216 88.2698 60.1686L88.2735 60.1662C88.4101 60.0751 88.5442 59.9826 88.6756 59.8889C88.7228 60.3876 88.769 60.9062 88.8154 61.444C88.8405 61.7338 88.8656 62.0293 88.8911 62.329C89.0651 64.3745 89.2562 66.6214 89.5517 68.6606C89.8739 70.8836 90.402 73.544 91.5636 75.6736C91.8554 76.2085 92.227 76.7853 92.7011 77.3413C91.5529 78.4344 90.2874 79.5169 89.1573 80.3744C88.5822 80.8107 88.0901 81.1524 87.7026 81.3954C87.4633 81.3238 87.1677 81.2253 86.8109 81.0942C85.5667 80.6368 84.0628 79.9654 82.375 79.2012L82.0166 79.0387C80.5129 78.3572 78.8633 77.6095 77.4259 77.0573C76.6465 76.7578 75.7923 76.4615 74.9592 76.2597C74.2812 76.0955 72.9522 75.8165 71.5194 76.103C70.3735 76.3322 69.409 76.8444 68.7673 77.2371C68.0571 77.6717 67.3681 78.1943 66.7304 78.7409C65.455 79.8341 64.145 81.2293 63 82.7559C61.8668 84.2669 60.7642 86.0809 60.0619 88.0291C59.9158 88.4345 59.778 88.8711 59.6606 89.3326C56.9074 88.9027 53.1588 88.0063 49.2399 86.839C44.9722 85.5678 40.761 84.0522 37.6969 82.638C36.6941 82.1752 35.8954 81.76 35.2936 81.4075C35.4602 80.6911 35.6868 79.8353 35.9674 78.8438C36.3671 77.4312 36.8235 75.922 37.3167 74.2912C37.6685 73.1281 38.0391 71.9029 38.421 70.607C38.5104 70.3037 38.2828 70.0001 37.9667 70.0001H28.9093C28.4681 70.0001 28.0791 70.2893 27.9515 70.7116C27.8983 70.8879 27.8451 71.0639 27.792 71.2396L27.7917 71.2406C27.2695 72.9689 26.7587 74.6596 26.3451 76.1211C25.7088 78.3702 25 81.0505 25 83.0059C25 84.9392 25.9343 86.3452 26.5285 87.0741C27.1744 87.8665 27.9423 88.5001 28.6161 88.9867C29.9793 89.9715 31.7142 90.8905 33.5063 91.7176C37.1452 93.3971 41.8403 95.0691 46.3851 96.4229C50.9138 97.7718 55.5523 98.8822 59.0814 99.3527C60.7378 99.5736 62.634 99.7256 64.2395 99.4683C64.9405 99.3559 66.4767 99.0426 67.7713 97.8343C68.5169 97.1384 69.1569 96.1627 69.4208 94.9376C69.6583 93.8354 69.5242 92.8466 69.2953 92.0884C69.304 91.9999 69.3372 91.7869 69.4694 91.4202C69.7358 90.681 70.2582 89.7449 71 88.7559C71.73 87.7825 72.545 86.9277 73.2383 86.3335C73.2852 86.2933 73.3303 86.2553 73.3738 86.2194C73.5132 86.2689 73.6682 86.3262 73.8397 86.3921C74.9899 86.834 76.381 87.4641 77.9848 88.1906L78.25 88.3107C79.8747 89.0464 81.7145 89.875 83.3609 90.4802C84.1878 90.7841 85.0848 91.0768 85.9673 91.2732C86.7532 91.4481 87.9949 91.6591 89.322 91.4379C90.6814 91.2113 91.8979 90.5367 92.5851 90.1299C93.4358 89.6263 94.3329 89.0001 95.2021 88.3406C96.9456 87.0176 98.8507 85.3513 100.473 83.729C101.948 82.2538 103.69 80.329 104.581 78.5326C104.824 78.042 105.146 77.2865 105.279 76.3682C105.412 75.4474 105.417 73.8385 104.333 72.3057C103.223 70.7347 101.644 70.1933 100.614 70.0279C100.403 69.9941 100.197 69.9723 99.9962 69.9599C99.818 69.3411 99.6256 68.4498 99.4483 67.2263C99.1985 65.5029 99.0346 63.5827 98.8571 61.5026C98.8312 61.1995 98.8051 60.8931 98.7783 60.5835C98.5783 58.2677 98.3409 55.7152 97.9029 53.5254C97.6933 52.4771 97.4513 51.4931 97.1466 50.6299C96.9093 49.9575 96.5111 48.9892 95.792 48.098C96.8301 46.5309 97.9315 44.8611 99.0729 43.0972C101.796 38.8886 104.597 34.3655 106.088 31.0639C106.471 30.2164 106.831 29.3136 107.076 28.4281C107.282 27.6862 107.598 26.3202 107.305 24.8279C107.14 23.9898 106.743 22.911 105.837 21.9598C104.899 20.9746 103.751 20.4789 102.707 20.2967C100.923 19.9854 99.359 20.5612 98.5597 20.8978C98.4115 20.9602 97.775 21.1322 96.3873 20.9639C95.0598 20.803 93.3947 20.3727 91.4732 19.6494C87.6307 18.203 83.2898 15.7853 79.4572 12.9742C77.0395 11.2009 75.0074 9.342 72.9669 7.47543C72.1199 6.70067 71.2711 5.9242 70.3931 5.15237C69.0056 3.9327 67.4727 2.67006 65.879 1.72614C64.3048 0.79376 62.1865 -0.123247 59.7227 0.0136324C54.9599 0.278228 51.6188 2.95915 49.1407 5.5203C47.9598 6.74074 46.8113 8.11082 45.7425 9.38581L45.5858 9.57277C44.4321 10.9485 43.3123 12.2756 42.0781 13.5681C39.6466 16.1143 36.8801 18.4041 33.1932 20.0026C29.515 21.5974 24.6253 22.6313 17.798 22.2237L17.5169 22.2069L17.2357 22.2218C15.4234 22.3177 12.9596 22.9966 10.8502 24.7652C8.54705 26.6961 7 29.659 7 33.5059V34.1215L7.14929 34.7186C8.04032 38.2827 10.7048 40.1814 12.8416 41.1995C14.7232 42.096 16.93 42.6529 18.5633 43.0651C18.6981 43.0991 18.829 43.1321 18.9555 43.1643C20.9196 43.6636 22.1219 44.0164 22.91 44.4427C22.9929 44.4876 23.057 44.5252 23.1058 44.5555C23.4621 46.586 24.2357 48.2972 25.4218 49.6788C25.6014 49.888 25.867 50.0001 26.1428 50.0001H39.3029C40.0019 50.0001 40.4829 49.3 40.1513 48.6848C39.6855 47.8204 39.1058 47.0415 38.408 46.3508C36.941 44.8987 35.2336 44.1609 34.3305 43.7707L34.2097 43.7184C33.6962 43.4959 33.4318 43.3813 33.1936 43.2559C33.1223 43.2185 33.0709 43.1886 33.035 43.1665C33.0095 43.0903 32.9745 42.9578 32.9419 42.7457C32.3732 39.0494 29.9286 36.8702 27.6682 35.6473C25.6235 34.5412 23.2061 33.9267 21.4866 33.4896L21.4195 33.4726C19.6074 33.0119 18.3761 32.6964 17.4586 32.3126C17.4955 32.2946 17.5361 32.2772 17.58 32.2612C17.6134 32.249 17.6436 32.2395 17.6698 32.2321C25.6228 32.6469 31.9639 31.4351 37.1711 29.1774C42.4714 26.8793 46.302 23.6246 49.3102 20.4744C50.7958 18.9187 52.1066 17.3597 53.2482 15.9983L53.2948 15.9427C54.4557 14.5583 55.3997 13.4326 56.3274 12.4738ZM102.55 30.0741C102.549 30.0763 102.518 30.089 102.461 30.1057C102.522 30.0803 102.551 30.072 102.55 30.0741ZM97.457 25.6782C97.4549 25.6887 97.4526 25.7017 97.4501 25.717C97.4629 25.6675 97.4651 25.6456 97.4651 25.6456C97.4651 25.6456 97.4611 25.6574 97.457 25.6782ZM100.362 70.9198C100.368 70.9294 100.371 70.9334 100.371 70.9334C100.371 70.9334 100.37 70.932 100.369 70.9299C100.368 70.9276 100.365 70.9242 100.362 70.9198ZM74.0713 85.7193C74.0713 85.7193 74.0595 85.7264 74.0377 85.7367C74.0607 85.7238 74.0713 85.7193 74.0713 85.7193ZM72.4816 85.955C72.4939 85.9573 72.5131 85.9604 72.5387 85.9634C72.4876 85.9525 72.4654 85.9511 72.4654 85.9511C72.4654 85.9511 72.4715 85.9531 72.4816 85.955ZM87.6922 53.8919C87.6777 53.8616 87.6714 53.8439 87.6714 53.8439C87.6714 53.8439 87.6791 53.8581 87.6922 53.8919ZM88.3052 81.5421C88.2989 81.5412 88.2892 81.5401 88.2765 81.539C88.3024 81.5431 88.3143 81.5437 88.3143 81.5437C88.3143 81.5437 88.311 81.5429 88.3052 81.5421ZM33.0722 43.2529C33.0722 43.2529 33.0651 43.2445 33.0548 43.22C33.0677 43.2394 33.0722 43.2529 33.0722 43.2529ZM16.6477 31.8896C16.6306 31.8761 16.6247 31.8689 16.6247 31.8689C16.6247 31.8689 16.6342 31.8755 16.6477 31.8896Z" fill="#0B1522"/>
</svg>
