<svg width="163" height="36" viewBox="0 0 163 36" fill="none" style="background-color:white"
    xmlns="http://www.w3.org/2000/svg">
    <path fill-rule="evenodd" clip-rule="evenodd" d="M2.74143 0.000488281L0.000427246 3.64449H3.13543L4.60143 1.68249L6.07243 3.64449H9.20643L6.46343 0.000488281H2.74143ZM2.52143 17.7315H6.68443V5.01949H2.52143V17.7315Z" fill="#1900FF"/>
    <path fill-rule="evenodd" clip-rule="evenodd" d="M8.711 17.7343H12.875V0.243286H8.711V17.7343Z" fill="#1900FF"/>
    <path fill-rule="evenodd" clip-rule="evenodd" d="M23.3108 10.0685C23.2368 8.64049 22.2318 7.46849 20.8358 7.46849C19.3668 7.46849 18.3878 8.51849 18.1398 10.0685H23.3108ZM18.1398 12.3925C18.2138 14.1315 19.2168 15.2825 20.9838 15.2825C21.9828 15.2825 22.9668 14.8165 23.3588 13.8815H27.2548C26.4958 16.8235 23.7728 18.0985 20.9328 18.0985C16.7928 18.0985 13.9778 15.6005 13.9778 11.3395C13.9778 7.44649 17.0898 4.65149 20.8358 4.65149C25.3928 4.65149 27.6698 8.08249 27.4778 12.3925H18.1398Z" fill="#1900FF"/>
    <path fill-rule="evenodd" clip-rule="evenodd" d="M32.9461 16.5138C35.1491 16.5138 35.9971 14.6218 35.9971 12.7498C35.9971 10.7758 35.1081 8.96685 32.8511 8.96685C30.6111 8.96685 29.8581 10.8768 29.8581 12.8278C29.8581 14.6968 30.8251 16.5138 32.9461 16.5138ZM37.5831 17.7338H35.9411V16.3818H35.9021C35.3631 17.4818 34.0871 17.9618 32.7171 17.9618C29.6441 17.9618 28.1191 15.5268 28.1191 12.7078C28.1191 9.89085 29.6251 7.51485 32.6801 7.51485C33.6991 7.51485 35.1681 7.90085 35.9021 9.07685H35.9411V3.94385H37.5831V17.7338Z" fill="#1900FF"/>
    <path fill-rule="evenodd" clip-rule="evenodd" d="M46.0755 11.7844C45.9995 10.2194 44.8255 8.96736 43.2005 8.96736C41.4835 8.96736 40.4605 10.2564 40.3455 11.7844H46.0755ZM47.6615 14.5644C47.2185 16.7654 45.6345 17.9644 43.3955 17.9644C40.2065 17.9644 38.7005 15.7634 38.6025 12.7104C38.6025 9.71536 40.5745 7.51636 43.2965 7.51636C46.8285 7.51636 47.9115 10.8164 47.8145 13.2344H40.3435C40.2855 14.9754 41.2715 16.5134 43.4495 16.5134C44.8025 16.5134 45.7455 15.8534 46.0365 14.5644H47.6615Z" fill="#1900FF"/>
    <path fill-rule="evenodd" clip-rule="evenodd" d="M48.8806 0.243286H61.7646V3.89229H53.4356V7.46929H60.6386V10.9943H53.4356V17.7333H48.8806V0.243286Z" fill="#1900FF"/>
    <path fill-rule="evenodd" clip-rule="evenodd" d="M62.596 5.01875H66.639V7.24775H66.686C67.301 5.63075 68.718 4.77075 70.511 4.77075C70.826 4.77075 71.167 4.80175 71.489 4.87375V8.66675C70.948 8.51875 70.461 8.42175 69.894 8.42175C67.837 8.42175 66.754 9.84275 66.754 11.4378V17.7338H62.594V5.01875H62.596Z" fill="#1900FF"/>
    <path fill-rule="evenodd" clip-rule="evenodd" d="M76.8763 15.5265C78.8563 15.5265 79.5183 14.3995 79.4213 11.7785C78.8343 12.1435 77.7573 12.2215 76.8493 12.4635C75.9213 12.6815 75.1353 13.0755 75.1353 14.0805C75.1353 15.1075 75.9413 15.5265 76.8763 15.5265ZM71.4883 8.93549C71.5603 7.27549 72.3463 6.19449 73.4683 5.53049C74.5953 4.89849 76.0633 4.65149 77.5113 4.65149C80.5233 4.65149 83.4413 5.31549 83.4413 8.91549V14.4735C83.4413 15.5525 83.4413 16.7265 83.9333 17.7335H79.7413C79.5973 17.3375 79.5433 16.9495 79.4983 16.5325C78.4213 17.6575 76.8293 18.0985 75.3083 18.0985C72.8823 18.0985 70.9753 16.8755 70.9753 14.2515C70.9753 10.1135 75.4813 10.4325 78.3723 9.84249C79.0853 9.69649 79.4733 9.45349 79.4733 8.67049C79.4733 7.71449 78.3283 7.34749 77.4683 7.34749C76.3153 7.34749 75.5833 7.86349 75.3873 8.93549H71.4883Z" fill="#1900FF"/>
    <path fill-rule="evenodd" clip-rule="evenodd" d="M84.9578 5.01878H89.0008V6.75678H89.0528C89.8098 5.45778 91.5218 4.64978 93.0398 4.64978C97.2788 4.64978 97.6238 7.73778 97.6238 9.57578V17.7318H93.4608V11.5838C93.4608 9.84278 93.6568 8.08178 91.3748 8.08178C89.8098 8.08178 89.1228 9.40178 89.1228 10.7978V17.7338H84.9558V5.01878H84.9578Z" fill="#1900FF"/>
    <path fill-rule="evenodd" clip-rule="evenodd" d="M107.446 9.6741C107.419 8.5981 106.462 7.8361 105.414 7.8361C103.085 7.8361 102.72 9.8191 102.72 11.5841C102.72 13.2261 103.43 14.9111 105.196 14.9111C106.635 14.9111 107.378 14.0801 107.568 12.7371H111.611C111.243 16.1391 108.599 18.0961 105.216 18.0961C101.398 18.0961 98.5511 15.4771 98.5511 11.5841C98.5511 7.5431 101.126 4.6521 105.216 4.6521C108.378 4.6521 111.196 6.3191 111.491 9.6741H107.446Z" fill="#1900FF"/>
    <path fill-rule="evenodd" clip-rule="evenodd" d="M121.188 10.0685C121.114 8.64049 120.109 7.46849 118.713 7.46849C117.242 7.46849 116.267 8.51849 116.019 10.0685H121.188ZM116.021 12.3925C116.095 14.1315 117.1 15.2825 118.863 15.2825C119.866 15.2825 120.846 14.8165 121.236 13.8815H125.134C124.371 16.8235 121.652 18.0985 118.81 18.0985C114.672 18.0985 111.855 15.6005 111.855 11.3395C111.855 7.44649 114.969 4.65149 118.713 4.65149C123.271 4.65149 125.547 8.08249 125.351 12.3925H116.021Z" fill="#1900FF"/>
    <path fill-rule="evenodd" clip-rule="evenodd" d="M9.14191 25.9015C9.02191 25.7635 8.86391 25.6295 8.66591 25.4995C8.46791 25.3695 8.24291 25.2545 7.99591 25.1485C7.74791 25.0445 7.47491 24.9615 7.18391 24.8945C6.89191 24.8315 6.58591 24.7975 6.26891 24.7975C5.44391 24.7975 4.84091 24.9535 4.45991 25.2595C4.07791 25.5675 3.88591 25.9905 3.88591 26.5265C3.88591 26.8155 3.93991 27.0525 4.04891 27.2425C4.15891 27.4315 4.32991 27.5925 4.56291 27.7275C4.79591 27.8615 5.08691 27.9785 5.43391 28.0785C5.77991 28.1765 6.19191 28.2825 6.66891 28.3915C7.21591 28.5105 7.70791 28.6475 8.14991 28.8015C8.59091 28.9565 8.96891 29.1465 9.28291 29.3755C9.59591 29.6045 9.83291 29.8805 9.99791 30.2095C10.1609 30.5365 10.2439 30.9385 10.2439 31.4155C10.2439 31.9215 10.1439 32.3605 9.94691 32.7335C9.74791 33.1045 9.47791 33.4145 9.13591 33.6575C8.79291 33.9005 8.38891 34.0805 7.92291 34.1935C7.45691 34.3075 6.94991 34.3655 6.40491 34.3655C5.58991 34.3655 4.81891 34.2395 4.08791 33.9855C3.35791 33.7315 2.69591 33.3625 2.09991 32.8765L2.73991 31.7435C2.89791 31.9125 3.10391 32.0815 3.35791 32.2495C3.61191 32.4185 3.89891 32.5685 4.22291 32.7025C4.54391 32.8375 4.89291 32.9465 5.26391 33.0305C5.63791 33.1155 6.02491 33.1565 6.43391 33.1565C7.18891 33.1565 7.77491 33.0225 8.19091 32.7545C8.60791 32.4855 8.81591 32.0845 8.81591 31.5475C8.81591 31.2505 8.74991 30.9995 8.61591 30.7945C8.48191 30.5895 8.28591 30.4155 8.02791 30.2665C7.76991 30.1185 7.45091 29.9855 7.06691 29.8725C6.68491 29.7585 6.24991 29.6415 5.76391 29.5215C5.22691 29.3935 4.75491 29.2545 4.34891 29.1055C3.94191 28.9565 3.60091 28.7775 3.32791 28.5685C3.05491 28.3605 2.84891 28.1065 2.70791 27.8095C2.56991 27.5125 2.49991 27.1535 2.49991 26.7375C2.49991 26.2315 2.59491 25.7845 2.78291 25.3965C2.97091 25.0085 3.23391 24.6805 3.57291 24.4145C3.91091 24.1465 4.31091 23.9465 4.77991 23.8125C5.24591 23.6775 5.75291 23.6125 6.29791 23.6125C7.01391 23.6125 7.65691 23.7215 8.23491 23.9395C8.80991 24.1585 9.32191 24.4515 9.76891 24.8185L9.14191 25.9015Z" fill="#494949"/>
    <path fill-rule="evenodd" clip-rule="evenodd" d="M21.1453 34.256V26.081L17.6303 32.35H16.8713L13.3413 26.081V34.256H12.0013V23.682H13.4163L17.2423 30.547L21.0853 23.682H22.4833V34.256H21.1453Z" fill="#494949"/>
    <path fill-rule="evenodd" clip-rule="evenodd" d="M30.7039 30.1164L28.7979 25.2314L26.8319 30.1164H30.7039ZM28.2329 23.6844H29.3649L33.6839 34.2584H32.2549L31.0049 31.1594H26.5679L25.3319 34.2584H23.9029L28.2329 23.6844Z" fill="#494949"/>
    <path fill-rule="evenodd" clip-rule="evenodd" d="M36.4383 29.2678H39.6393C39.9183 29.2678 40.1673 29.2078 40.3923 29.0888C40.6153 28.9688 40.8073 28.8078 40.9663 28.6038C41.1253 28.3998 41.2493 28.1638 41.3393 27.8968C41.4283 27.6278 41.4733 27.3498 41.4733 27.0628C41.4733 26.7658 41.4213 26.4858 41.3163 26.2218C41.2133 25.9588 41.0733 25.7248 40.9003 25.5228C40.7273 25.3178 40.5223 25.1598 40.2893 25.0458C40.0563 24.9318 39.8113 24.8738 39.5533 24.8738H36.4403V29.2678H36.4383ZM35.0973 34.2558V23.6818H39.6253C40.0913 23.6818 40.5203 23.7798 40.9123 23.9728C41.3043 24.1668 41.6423 24.4248 41.9253 24.7468C42.2083 25.0688 42.4283 25.4318 42.5873 25.8328C42.7463 26.2358 42.8263 26.6448 42.8263 27.0628C42.8263 27.4298 42.7753 27.7858 42.6693 28.1268C42.5643 28.4698 42.4163 28.7798 42.2223 29.0578C42.0283 29.3358 41.7953 29.5738 41.5223 29.7738C41.2503 29.9718 40.9453 30.1168 40.6073 30.2048L43.1693 34.2558H41.6503L39.2373 30.4578H36.4383V34.2558H35.0973Z" fill="#494949"/>
    <path fill-rule="evenodd" clip-rule="evenodd" d="M52.4163 24.8743H48.7673V34.2563H47.4263V24.8743H43.7773V23.6823H52.4143V24.8743H52.4163Z" fill="#494949"/>
    <path fill-rule="evenodd" clip-rule="evenodd" d="M63.4661 25.9015C63.3461 25.7635 63.1881 25.6295 62.9901 25.4995C62.7921 25.3695 62.5671 25.2545 62.3201 25.1485C62.0721 25.0445 61.7991 24.9615 61.5081 24.8945C61.2161 24.8315 60.9101 24.7975 60.5931 24.7975C59.7681 24.7975 59.1651 24.9535 58.7841 25.2595C58.4021 25.5675 58.2101 25.9905 58.2101 26.5265C58.2101 26.8155 58.2641 27.0525 58.3731 27.2425C58.4831 27.4315 58.6541 27.5925 58.8871 27.7275C59.1201 27.8615 59.4111 27.9785 59.7581 28.0785C60.1041 28.1765 60.5161 28.2825 60.9931 28.3915C61.5401 28.5105 62.0321 28.6475 62.4741 28.8015C62.9161 28.9565 63.2931 29.1465 63.6071 29.3755C63.9201 29.6045 64.1571 29.8805 64.3221 30.2095C64.4851 30.5365 64.5681 30.9385 64.5681 31.4155C64.5681 31.9215 64.4691 32.3605 64.2711 32.7335C64.0721 33.1045 63.8021 33.4145 63.4601 33.6575C63.1181 33.9005 62.7141 34.0805 62.2471 34.1935C61.7811 34.3075 61.2741 34.3655 60.7291 34.3655C59.9141 34.3655 59.1431 34.2395 58.4121 33.9855C57.6821 33.7315 57.0201 33.3625 56.4241 32.8765L57.0641 31.7435C57.2221 31.9125 57.4281 32.0815 57.6821 32.2495C57.9361 32.4185 58.2231 32.5685 58.5471 32.7025C58.8681 32.8375 59.2171 32.9465 59.5881 33.0305C59.9621 33.1155 60.3491 33.1565 60.7581 33.1565C61.5131 33.1565 62.0991 33.0225 62.5151 32.7545C62.9321 32.4855 63.1401 32.0845 63.1401 31.5475C63.1401 31.2505 63.0741 30.9995 62.9401 30.7945C62.8061 30.5895 62.6101 30.4155 62.3521 30.2665C62.0941 30.1185 61.7751 29.9855 61.3911 29.8725C61.0091 29.7585 60.5741 29.6415 60.0881 29.5215C59.5511 29.3935 59.0791 29.2545 58.6731 29.1055C58.2661 28.9565 57.9261 28.7775 57.6521 28.5685C57.3791 28.3605 57.1731 28.1065 57.0321 27.8095C56.8941 27.5125 56.8241 27.1535 56.8241 26.7375C56.8241 26.2315 56.9191 25.7845 57.1071 25.3965C57.2951 25.0085 57.5591 24.6805 57.8971 24.4145C58.2351 24.1465 58.6351 23.9465 59.1041 23.8125C59.5701 23.6775 60.0771 23.6125 60.6221 23.6125C61.3381 23.6125 61.9811 23.7215 62.5591 23.9395C63.1341 24.1585 63.6461 24.4515 64.0931 24.8185L63.4661 25.9015Z" fill="#494949"/>
    <path fill-rule="evenodd" clip-rule="evenodd" d="M73.5017 33.0657V34.2577H66.3227V23.6847H73.3677V24.8767H67.6637V28.3007H72.6227V29.4167H67.6637V33.0657H73.5017Z" fill="#494949"/>
    <path fill-rule="evenodd" clip-rule="evenodd" d="M76.6741 29.2678H79.8751C80.1541 29.2678 80.4031 29.2078 80.6281 29.0888C80.8511 28.9688 81.0431 28.8078 81.2021 28.6038C81.3611 28.3998 81.4841 28.1638 81.5751 27.8968C81.6641 27.6278 81.7091 27.3498 81.7091 27.0628C81.7091 26.7658 81.6571 26.4858 81.5521 26.2218C81.4491 25.9588 81.3091 25.7248 81.1351 25.5228C80.9631 25.3178 80.7581 25.1598 80.5251 25.0458C80.2921 24.9318 80.0471 24.8738 79.7891 24.8738H76.6761V29.2678H76.6741ZM75.3331 34.2558V23.6818H79.8611C80.3271 23.6818 80.7561 23.7798 81.1481 23.9728C81.5401 24.1668 81.8781 24.4248 82.1611 24.7468C82.4441 25.0688 82.6641 25.4318 82.8231 25.8328C82.9821 26.2358 83.0621 26.6448 83.0621 27.0628C83.0621 27.4298 83.0111 27.7858 82.9051 28.1268C82.8001 28.4698 82.6521 28.7798 82.4581 29.0578C82.2641 29.3358 82.0311 29.5738 81.7581 29.7738C81.4861 29.9718 81.1811 30.1168 80.8431 30.2048L83.4041 34.2558H81.8861L79.4731 30.4578H76.6741V34.2558H75.3331Z" fill="#494949"/>
    <path fill-rule="evenodd" clip-rule="evenodd" d="M85.1189 23.6847L88.6189 32.5747L92.1029 23.6847H93.5179L89.1989 34.2577H88.0379L83.7039 23.6847H85.1189Z" fill="#494949"/>
    <mask id="mask0_2559_8" style="mask-type:alpha" maskUnits="userSpaceOnUse" x="0" y="0" width="163" height="36">
        <path fill-rule="evenodd" clip-rule="evenodd" d="M0 35.4442H162.199V0.000244141H0V35.4442Z" fill="white"/>
    </mask>
    <g mask="url(#mask0_2559_8)">
        <path fill-rule="evenodd" clip-rule="evenodd" d="M94.946 34.2563H96.287V23.6823H94.946V34.2563Z" fill="#494949"/>
        <path fill-rule="evenodd" clip-rule="evenodd" d="M98.1326 28.8948C98.1326 28.2588 98.2436 27.6258 98.4666 26.9978C98.6896 26.3658 99.0176 25.8008 99.4486 25.2988C99.8796 24.7978 100.41 24.3938 101.035 24.0858C101.66 23.7798 102.37 23.6238 103.164 23.6238C104.107 23.6238 104.915 23.8388 105.592 24.2638C106.266 24.6908 106.768 25.2468 107.096 25.9328L106.037 26.6178C105.879 26.2798 105.687 25.9968 105.464 25.7698C105.241 25.5408 104.998 25.3578 104.734 25.2188C104.47 25.0818 104.199 24.9798 103.923 24.9218C103.645 24.8628 103.372 24.8328 103.104 24.8328C102.518 24.8328 102.001 24.9558 101.549 25.1988C101.097 25.4418 100.717 25.7588 100.41 26.1518C100.103 26.5428 99.8716 26.9848 99.7166 27.4758C99.5626 27.9668 99.4856 28.4608 99.4856 28.9568C99.4856 29.5138 99.5766 30.0408 99.7626 30.5428C99.9456 31.0438 100.202 31.4878 100.53 31.8748C100.858 32.2628 101.246 32.5708 101.691 32.7998C102.139 33.0288 102.624 33.1418 103.15 33.1418C103.428 33.1418 103.713 33.1068 104.006 33.0368C104.299 32.9668 104.579 32.8558 104.847 32.7028C105.115 32.5478 105.365 32.3558 105.6 32.1218C105.833 31.8878 106.025 31.6078 106.174 31.2798L107.29 31.8898C107.12 32.2888 106.885 32.6368 106.582 32.9398C106.279 33.2438 105.936 33.4988 105.555 33.7068C105.173 33.9158 104.769 34.0748 104.342 34.1838C103.915 34.2928 103.498 34.3468 103.092 34.3468C102.368 34.3468 101.702 34.1878 101.097 33.8708C100.491 33.5528 99.9686 33.1378 99.5256 32.6258C99.0836 32.1148 98.7406 31.5358 98.4976 30.8828C98.2546 30.2338 98.1326 29.5718 98.1326 28.8948Z" fill="#494949"/>
        <path fill-rule="evenodd" clip-rule="evenodd" d="M116.151 33.0657V34.2577H108.973V23.6847H116.017V24.8767H110.314V28.3007H115.273V29.4167H110.314V33.0657H116.151Z" fill="#494949"/>
        <path fill-rule="evenodd" clip-rule="evenodd" d="M124.193 25.9015C124.073 25.7635 123.915 25.6295 123.717 25.4995C123.519 25.3695 123.294 25.2545 123.047 25.1485C122.799 25.0445 122.526 24.9615 122.235 24.8945C121.943 24.8315 121.637 24.7975 121.32 24.7975C120.497 24.7975 119.892 24.9535 119.511 25.2595C119.129 25.5675 118.937 25.9905 118.937 26.5265C118.937 26.8155 118.991 27.0525 119.1 27.2425C119.21 27.4315 119.381 27.5925 119.614 27.7275C119.847 27.8615 120.138 27.9785 120.485 28.0785C120.831 28.1765 121.243 28.2825 121.72 28.3915C122.267 28.5105 122.759 28.6475 123.201 28.8015C123.642 28.9565 124.02 29.1465 124.334 29.3755C124.647 29.6045 124.884 29.8805 125.049 30.2095C125.212 30.5365 125.295 30.9385 125.295 31.4155C125.295 31.9215 125.195 32.3605 124.998 32.7335C124.799 33.1045 124.529 33.4145 124.187 33.6575C123.844 33.9005 123.44 34.0805 122.974 34.1935C122.508 34.3075 122.001 34.3655 121.456 34.3655C120.641 34.3655 119.87 34.2395 119.139 33.9855C118.409 33.7315 117.747 33.3625 117.151 32.8765L117.791 31.7435C117.949 31.9125 118.155 32.0815 118.409 32.2495C118.663 32.4185 118.95 32.5685 119.274 32.7025C119.595 32.8375 119.944 32.9465 120.315 33.0305C120.689 33.1155 121.076 33.1565 121.485 33.1565C122.24 33.1565 122.825 33.0225 123.242 32.7545C123.659 32.4855 123.867 32.0845 123.867 31.5475C123.867 31.2505 123.801 30.9995 123.667 30.7945C123.533 30.5895 123.337 30.4155 123.079 30.2665C122.821 30.1185 122.502 29.9855 122.118 29.8725C121.736 29.7585 121.301 29.6415 120.815 29.5215C120.278 29.3935 119.806 29.2545 119.4 29.1055C118.993 28.9565 118.652 28.7775 118.379 28.5685C118.106 28.3605 117.9 28.1065 117.759 27.8095C117.621 27.5125 117.551 27.1535 117.551 26.7375C117.551 26.2315 117.646 25.7845 117.834 25.3965C118.022 25.0085 118.285 24.6805 118.624 24.4145C118.962 24.1465 119.362 23.9465 119.831 23.8125C120.297 23.6775 120.804 23.6125 121.349 23.6125C122.065 23.6125 122.708 23.7215 123.286 23.9395C123.861 24.1585 124.373 24.4515 124.82 24.8185L124.193 25.9015Z" fill="#494949"/>
        <path fill-rule="evenodd" clip-rule="evenodd" d="M139.719 27.0686V12.9646C135.824 12.9646 132.667 16.1226 132.667 20.0166V27.0686V34.1216H139.719H146.771C150.666 34.1216 153.823 30.9636 153.823 27.0686H139.719Z" fill="#1900FF"/>
        <path fill-rule="evenodd" clip-rule="evenodd" d="M153.823 12.964V27.07C157.718 27.07 160.875 23.912 160.875 20.018V12.964V5.91003H153.823H146.771C142.876 5.91003 139.719 9.06803 139.719 12.963H153.823V12.964Z" fill="#1900FF"/>
        <path fill-rule="evenodd" clip-rule="evenodd" d="M146.771 14.7278C149.692 14.7278 152.06 17.0958 152.06 20.0168C152.06 22.9378 149.692 25.3048 146.771 25.3048C143.85 25.3048 141.482 22.9378 141.482 20.0168C141.482 17.0958 143.85 14.7278 146.771 14.7278Z" fill="#1900FF"/>
        <path fill-rule="evenodd" clip-rule="evenodd" d="M158.672 28.3909C160.62 28.3909 162.199 29.9699 162.199 31.9169C162.199 33.8659 160.62 35.4449 158.672 35.4449C156.724 35.4449 155.145 33.8659 155.145 31.9169C155.145 29.9699 156.724 28.3909 158.672 28.3909Z" fill="#1900FF"/>
        <path fill-rule="evenodd" clip-rule="evenodd" d="M134.87 4.58899C136.818 4.58899 138.397 6.16799 138.397 8.11499C138.397 10.064 136.818 11.643 134.87 11.643C132.922 11.643 131.343 10.064 131.343 8.11499C131.343 6.16799 132.922 4.58899 134.87 4.58899Z" fill="#1900FF"/>
    </g>
</svg>
